<?xml version="1.0" standalone="no"?>
<svg xmlns="http://www.w3.org/2000/svg" viewBox="0 0 169.897 29" width="169.897" height="29"><g fill="#000000" color="#000000" transform="translate(0, 0) scale(0.29)"><svg width="100.0" height="100.0" x="0.0" y="0.0" viewBox="0 0 100 100"><path d="M86.2,35c0.3-3.5,0.4-6.3-0.1-8.8c-1.7-9.4-10.3-16.2-20.8-19.1c-8.6-2.4-24.4-5.9-34.5,1c-5.4,3.7-8.8,10.9-9.6,21.5  c-0.3,4.2,1.5,12.6,2.9,17.4c1.4,4.8,2.5,7,3.3,9c0.9,2.1,3.5,12.2,2.8,18.1c-1.1,9-8.1,14.4-11.6,17.1c-1.1,0.9-0.6,2.6,0.7,2.8  l36.5,0c1.4,0.2,2.4-1.2,1.6-2.4c-1.8-2.9-2.3-5.9-0.9-9.3c0.7-1.6,1.4-2.3,3.3-1.5c2.5,1.1,5.2,2.2,7.9,2.8  c1.9,0.4,2.3,0.5,4.4-0.8c1.7-1,2.9-2.6,2.7-5.1c-0.2-2.3-0.3-2.8,0.2-3.9c0.3-0.7,1.2-1.4,1.6-2.5c0.1-0.2-2-0.7-2-0.9  c0.1-0.2,2.2-0.2,2.3-0.4c0.3-1,0.1-2,0.4-3.1c0.5-1.9,1.5-4.2,3.3-4.3c0.7,0,1.3-0.4,2-0.6c1.2-0.5,1.7-1.4,1.4-3  c-0.9-4.1-2.1-6.4-2.9-10.5c-0.2-0.8-0.3-2.1,0.1-2.7C83.8,42.5,85.4,44.3,86.2,35z M72.5,37c-1.1,1.1-2.1,2.1-3.2,3.2  c0,0-0.1,0-0.2,0.1c-1.7-4.2-5.2-5.5-8.4-5c-3.5,0.5-6.5,3.6-7,7.4c-0.4,3.2,1.5,6.2,5.2,7.9c-1.2,1.3-2.3,2.5-3.6,3.6  c-1.4,1.2-3.6,1-5-0.3c-1.5-1.5-3-3-4.5-4.5c-0.3-0.3-0.7-0.6-1.1-0.9c-1.5-0.9-3.1-0.2-3.5,1.5c0,0.2,0,0.4-0.1,0.6  c-0.2,1.8-1,3.2-2.9,3.7c-1.8,0.5-3.4-0.1-4.6-1.5c-1.1-1.2-1.6-2.7-1-4.4c0.6-1.6,1.9-2.4,3.6-2.6c0.4,0,0.8-0.1,1.2-0.3  c1.4-0.5,1.9-1.9,1.1-3.2c-0.2-0.4-0.6-0.8-0.9-1.1c-1.4-1.5-2.9-2.9-4.4-4.4c-1.7-1.7-1.7-3.8,0-5.6c1.5-1.5,2.9-2.9,4.4-4.4  c0.3-0.3,0.6-0.6,0.8-0.9c1-1.6,0.2-3.3-1.6-3.6c-0.4-0.1-0.8-0.1-1.2-0.2c-2.8-0.7-4.1-3.4-2.6-6c0.7-1.3,1.8-2.2,3.3-2.5  c2.3-0.5,4.5,1.1,4.8,3.5c0.1,1.2,0.3,2.4,1.7,2.8c1.3,0.4,2.2-0.4,3.1-1.2c1.4-1.4,2.9-2.9,4.3-4.3c1.7-1.7,3.8-1.7,5.5,0  c1.4,1.4,2.8,2.8,4.2,4.2c0.2,0.2,0.4,0.4,0.7,0.6c0.8,0.7,1.6,1.1,2.6,0.7c1.1-0.4,1.4-1.3,1.5-2.3c0.2-1.9,1.2-3.3,2.8-3.8  c2.4-0.7,5.1,1,5.7,3.6c0.5,2.4-1,4.5-3.7,4.9c-0.2,0-0.4,0-0.6,0.1c-1.9,0.3-2.7,2-1.6,3.6c0.2,0.3,0.5,0.6,0.8,0.9  c1.5,1.5,2.9,3,4.4,4.5C74.2,33.2,74.2,35.3,72.5,37z"></path></svg></g><line x1="41" y1="1" x2="41" y2="28" stroke="#0f4667" stroke-linecap="round"></line><path fill="#0f4667" fill-rule="nonzero" d="M0.05 15.05L0.89 14.98Q1.10 11.66 1.10 7.99Q1.10 4.32 0.89 2.35L0.89 2.35L0.07 2.28Q0.02 1.90 0.02 1.62Q0.02 1.34 0.10 0.94L0.10 0.94Q0.94 0.96 2.04 0.96Q3.14 0.96 3.96 0.94L3.96 0.94Q4.03 1.30 4.03 1.57Q4.03 1.85 3.98 2.28L3.98 2.28L3.07 2.35Q2.90 4.61 2.90 8.56Q2.90 12.50 3.07 14.54L3.07 14.54Q3.82 14.62 5.24 14.62Q6.67 14.62 7.42 14.50L7.42 14.50L7.49 12.86Q7.90 12.79 8.22 12.79Q8.54 12.79 8.83 12.82L8.83 12.82Q8.90 14.64 9.05 16.37L9.05 16.37L8.93 16.49Q7.80 16.37 4.34 16.37Q0.89 16.37 0.07 16.39L0.07 16.39Q0 16.03 0 15.76Q0 15.48 0.05 15.05L0.05 15.05ZM14.30 11.04L14.30 11.04Q13.13 11.04 12.12 10.92L12.12 10.92Q12.17 15.00 14.83 15.00L14.83 15.00Q16.18 15.00 17.81 13.51L17.81 13.51Q18.50 14.23 18.70 15.41L18.70 15.41Q16.73 16.73 14.52 16.73Q12.31 16.73 11.23 15.20Q10.15 13.68 10.15 10.73Q10.15 7.78 11.36 6.34Q12.58 4.90 14.81 4.90L14.81 4.90Q16.46 4.90 17.54 5.90Q18.62 6.91 18.64 8.38Q18.65 9.84 18.38 10.46L18.38 10.46Q16.58 11.04 14.30 11.04ZM14.64 6.24L14.64 6.24Q12.41 6.24 12.14 9.53L12.14 9.53Q13.22 9.65 14.52 9.65Q15.82 9.65 16.54 9.41L16.54 9.41Q16.63 8.81 16.63 8.52L16.63 8.52Q16.63 7.46 16.09 6.85Q15.55 6.24 14.64 6.24ZM20.76 15.05L21.60 14.98Q21.82 12.58 21.82 10.57Q21.82 8.57 21.62 6.60L21.62 6.60L20.74 6.53Q20.66 6.14 20.66 5.74Q20.66 5.33 20.69 5.18L20.69 5.18Q21.91 5.16 23.66 4.97L23.66 4.97L23.78 5.09Q23.76 5.23 23.64 6.50L23.64 6.50Q24.19 5.81 24.92 5.35Q25.66 4.90 26.36 4.90Q27.07 4.90 27.60 5.40Q28.13 5.90 28.13 6.72L28.13 6.72Q28.13 8.06 27 8.06L27 8.06Q26.35 8.06 25.97 7.64Q25.58 7.22 25.58 6.53L25.58 6.53Q25.54 6.50 25.42 6.50L25.42 6.50Q24.53 6.50 23.59 7.85L23.59 7.85Q23.57 8.52 23.57 10.86Q23.57 13.20 23.78 14.98L23.78 14.98L24.67 15.05Q24.72 15.58 24.72 15.78Q24.72 15.98 24.65 16.39L24.65 16.39Q23.98 16.37 22.68 16.37Q21.38 16.37 20.78 16.39L20.78 16.39Q20.71 16.03 20.71 15.71Q20.71 15.38 20.76 15.05L20.76 15.05ZM38.86 7.97L38.86 7.97L38.83 10.30Q38.83 12.82 39.12 14.98L39.12 14.98L39.96 15.05Q40.01 15.58 40.01 15.78Q40.01 15.98 39.94 16.39L39.94 16.39Q39.26 16.37 37.92 16.37Q36.58 16.37 36 16.39L36 16.39Q35.93 16.03 35.93 15.71Q35.93 15.38 35.98 15.05L35.98 15.05L36.82 14.98Q37.01 12.17 37.01 10.16Q37.01 8.16 36.61 7.30Q36.22 6.43 35.26 6.43L35.26 6.43Q33.96 6.43 32.40 7.99L32.40 7.99Q32.38 8.62 32.38 10.91Q32.38 13.20 32.59 14.98L32.59 14.98L33.48 15.05Q33.53 15.58 33.53 15.78Q33.53 15.98 33.46 16.39L33.46 16.39Q32.78 16.37 31.49 16.37Q30.19 16.37 29.59 16.39L29.59 16.39Q29.52 16.03 29.52 15.71Q29.52 15.38 29.57 15.05L29.57 15.05L30.41 14.98Q30.62 12.58 30.62 10.57Q30.62 8.57 30.43 6.60L30.43 6.60L29.54 6.53Q29.47 6.12 29.47 5.72Q29.47 5.33 29.50 5.18L29.50 5.18Q30.72 5.16 32.47 4.97L32.47 4.97L32.59 5.09Q32.54 5.38 32.45 6.53L32.45 6.53Q33.19 5.78 34.18 5.34Q35.16 4.90 36.02 4.90L36.02 4.90Q38.86 4.90 38.86 7.97ZM41.98 2.35L41.09 2.28Q41.04 1.90 41.04 1.62Q41.04 1.34 41.11 0.94L41.11 0.94Q41.95 0.96 43.25 0.96Q44.54 0.96 45.36 0.94L45.36 0.94Q45.43 1.30 45.43 1.66Q45.43 2.02 45.38 2.28L45.38 2.28L44.54 2.35Q45.67 9.96 47.26 14.28L47.26 14.28L47.40 14.28Q48.14 12.46 48.83 9.23Q49.51 6.00 49.87 3.17L49.87 3.17Q50.59 2.88 51.06 2.88Q51.53 2.88 51.91 2.93L51.91 2.93Q52.99 10.22 54.55 14.28L54.55 14.28L54.70 14.28Q55.51 12.00 56.23 8.51Q56.95 5.02 57.24 2.35L57.24 2.35L56.38 2.28Q56.33 2.09 56.33 1.72Q56.33 1.34 56.40 0.94L56.40 0.94Q57.26 0.96 58.49 0.96Q59.71 0.96 60.46 0.94L60.46 0.94Q60.53 1.30 60.53 1.55Q60.53 1.80 60.48 2.28L60.48 2.28L59.64 2.35Q58.94 4.54 57.62 9.23Q56.30 13.92 55.68 16.37L55.68 16.37Q54.82 16.58 54.11 16.58Q53.40 16.58 53.18 16.56L53.18 16.56Q52.85 15.41 52.04 12.22Q51.24 9.02 50.86 7.56L50.86 7.56L50.74 7.56Q49.13 13.39 48.38 16.37L48.38 16.37Q47.52 16.58 46.81 16.58Q46.10 16.58 45.89 16.56L45.89 16.56Q45.79 16.25 44.32 10.48Q42.84 4.70 41.98 2.35L41.98 2.35ZM65.78 11.04L65.78 11.04Q64.61 11.04 63.60 10.92L63.60 10.92Q63.65 15.00 66.31 15.00L66.31 15.00Q67.66 15.00 69.29 13.51L69.29 13.51Q69.98 14.23 70.18 15.41L70.18 15.41Q68.21 16.73 66 16.73Q63.79 16.73 62.71 15.20Q61.63 13.68 61.63 10.73Q61.63 7.78 62.84 6.34Q64.06 4.90 66.29 4.90L66.29 4.90Q67.94 4.90 69.02 5.90Q70.10 6.91 70.12 8.38Q70.13 9.84 69.86 10.46L69.86 10.46Q68.06 11.04 65.78 11.04ZM66.12 6.24L66.12 6.24Q63.89 6.24 63.62 9.53L63.62 9.53Q64.70 9.65 66 9.65Q67.30 9.65 68.02 9.41L68.02 9.41Q68.11 8.81 68.11 8.52L68.11 8.52Q68.11 7.46 67.57 6.85Q67.03 6.24 66.12 6.24ZM79.68 9.86L79.68 9.86Q79.68 6.43 77.64 6.43L77.64 6.43Q76.18 6.43 74.86 7.99L74.86 7.99L74.86 14.45Q75.96 15.00 77.18 15.00L77.18 15.00Q79.68 15.00 79.68 9.86ZM74.86 6.53L74.86 6.53Q76.54 4.90 78.24 4.90Q79.94 4.90 80.83 6.29Q81.72 7.68 81.72 10.18L81.72 10.18Q81.72 13.56 80.56 15.14Q79.39 16.73 76.90 16.73L76.90 16.73Q75.34 16.73 72.74 16.10L72.74 16.10Q73.13 13.75 73.13 8.47Q73.13 3.19 73.01 1.63L73.01 1.63L72.05 1.56Q71.98 1.27 71.98 0.82Q71.98 0.36 72 0.22L72 0.22Q74.14 0.12 75.12 0L75.12 0L75.22 0.12Q74.88 3.00 74.86 6.53ZM86.62 2.40Q86.54 2.11 86.54 1.66Q86.54 1.20 86.57 1.06L86.57 1.06Q88.68 0.79 89.71 0.79Q90.74 0.79 91.46 1.03L91.46 1.03Q92.04 5.54 95.47 14.98L95.47 14.98L96.36 15.05Q96.41 15.58 96.41 15.78Q96.41 15.98 96.34 16.39L96.34 16.39Q95.66 16.37 94.25 16.37Q92.83 16.37 92.28 16.39L92.28 16.39Q92.21 16.03 92.21 15.71Q92.21 15.38 92.26 15.05L92.26 15.05L93.10 14.98Q92.98 14.40 92.71 13.31Q92.45 12.22 92.42 12.10L92.42 12.10Q91.06 12.02 89.46 12.02Q87.86 12.02 86.47 12.12L86.47 12.12L85.80 14.98L86.71 15.05Q86.76 15.58 86.76 15.78Q86.76 15.98 86.69 16.39L86.69 16.39Q86.11 16.37 84.80 16.37Q83.50 16.37 82.97 16.39L82.97 16.39Q82.90 16.03 82.90 15.71Q82.90 15.38 82.94 15.05L82.94 15.05L83.78 14.98Q86.66 7.08 87.58 2.47L87.58 2.47L86.62 2.40ZM86.90 10.44L86.90 10.44Q87.72 10.46 89.35 10.46Q90.98 10.46 91.99 10.39L91.99 10.39Q90.86 6.12 89.62 2.50L89.62 2.50L89.47 2.50Q88.06 5.93 86.90 10.44ZM103.66 4.90L103.66 4.90Q107.04 4.90 107.04 10.66L107.04 10.66Q107.04 12.86 106.18 14.66L106.18 14.66Q105.70 15.62 104.74 16.18Q103.78 16.73 102.60 16.73Q101.42 16.73 100.15 16.15L100.15 16.15Q100.27 19.15 100.37 19.99L100.37 19.99L101.26 20.06L101.30 20.69Q101.30 21.17 101.23 21.41L101.23 21.41Q100.66 21.38 99.25 21.38Q97.85 21.38 97.37 21.41L97.37 21.41Q97.30 21 97.30 20.69Q97.30 20.38 97.34 20.06L97.34 20.06L98.23 19.99Q98.42 17.38 98.42 13.00Q98.42 8.62 98.23 6.60L98.23 6.60L97.34 6.53Q97.27 6.31 97.27 5.84Q97.27 5.38 97.30 5.18L97.30 5.18Q98.40 5.16 100.25 4.97L100.25 4.97L100.37 5.09Q100.27 5.78 100.25 6.46L100.25 6.46Q101.90 4.90 103.66 4.90ZM102.38 15.00L102.38 15.00Q105 15.00 105 10.34L105 10.34Q105 7.51 104.06 6.77L104.06 6.77Q103.63 6.43 102.94 6.43Q102.24 6.43 101.47 6.89Q100.70 7.34 100.18 7.99L100.18 7.99Q100.13 9.98 100.13 14.45L100.13 14.45Q101.52 15.00 102.38 15.00ZM115.51 4.90L115.51 4.90Q118.90 4.90 118.90 10.66L118.90 10.66Q118.90 12.86 118.03 14.66L118.03 14.66Q117.55 15.62 116.59 16.18Q115.63 16.73 114.46 16.73Q113.28 16.73 112.01 16.15L112.01 16.15Q112.13 19.15 112.22 19.99L112.22 19.99L113.11 20.06L113.16 20.69Q113.16 21.17 113.09 21.41L113.09 21.41Q112.51 21.38 111.11 21.38Q109.70 21.38 109.22 21.41L109.22 21.41Q109.15 21 109.15 20.69Q109.15 20.38 109.20 20.06L109.20 20.06L110.09 19.99Q110.28 17.38 110.28 13.00Q110.28 8.62 110.09 6.60L110.09 6.60L109.20 6.53Q109.13 6.31 109.13 5.84Q109.13 5.38 109.15 5.18L109.15 5.18Q110.26 5.16 112.10 4.97L112.10 4.97L112.22 5.09Q112.13 5.78 112.10 6.46L112.10 6.46Q113.76 4.90 115.51 4.90ZM114.24 15.00L114.24 15.00Q116.86 15.00 116.86 10.34L116.86 10.34Q116.86 7.51 115.92 6.77L115.92 6.77Q115.49 6.43 114.79 6.43Q114.10 6.43 113.33 6.89Q112.56 7.34 112.03 7.99L112.03 7.99Q111.98 9.98 111.98 14.45L111.98 14.45Q113.38 15.00 114.24 15.00Z" transform="translate(51, 6.316)"></path></svg>