<?xml version="1.0" standalone="no"?>
<svg xmlns="http://www.w3.org/2000/svg" viewBox="0 0 91.729 36" width="91.729" height="36"><g fill="#000000" color="#000000" transform="translate(0 4) scale(0.875)"><svg width="32.0" height="32.0" x="0.0" y="0.0" viewBox="0 0 32 32"><g><path d="M16,17c-0.127,0-0.254-0.024-0.374-0.072l-15-6.045C0.248,10.729,0,10.362,0,9.955S0.248,9.18,0.626,9.027l15-6.045   c0.24-0.097,0.508-0.097,0.748,0l15,6.045C31.752,9.18,32,9.547,32,9.955s-0.248,0.775-0.626,0.928l-15,6.045   C16.254,16.976,16.127,17,16,17z M3.675,9.955L16,14.922l12.325-4.967L16,4.987L3.675,9.955z"></path><path d="M16,26c-5.204,0-9.396-2.875-9.571-2.998C6.16,22.815,6,22.509,6,22.182V13c0-0.552,0.448-1,1-1s1,0.448,1,1v8.631   C9.125,22.304,12.326,24,16,24c3.691,0,6.879-1.694,8-2.368V13c0-0.552,0.447-1,1-1s1,0.448,1,1v9.182   c0,0.327-0.16,0.634-0.429,0.82C25.396,23.125,21.204,26,16,26z"></path><path d="M31,26c-0.553,0-1-0.447-1-1V10c0-0.552,0.447-1,1-1s1,0.448,1,1v15C32,25.553,31.553,26,31,26z"></path></g></svg></g><path fill="#000000" fill-rule="nonzero" d="M7.68 19.44L0 19.44L0 0L2.71 0L2.71 17.50L7.68 17.50L7.68 19.44ZM13.15 19.63L13.15 19.63Q11.52 19.63 10.63 19.00Q9.74 18.36 9.40 17.12Q9.05 15.89 9.05 14.09L9.05 14.09L9.05 10.92Q9.05 9.07 9.41 7.85Q9.77 6.62 10.67 6.00Q11.57 5.38 13.15 5.38L13.15 5.38Q14.90 5.38 15.73 6.10Q16.56 6.82 16.82 8.17Q17.09 9.53 17.09 11.42L17.09 11.42L17.09 12.55L11.62 12.55L11.62 15.34Q11.62 16.18 11.77 16.70Q11.93 17.23 12.28 17.48Q12.62 17.74 13.18 17.74L13.18 17.74Q13.75 17.74 14.05 17.46Q14.35 17.18 14.46 16.67Q14.57 16.15 14.57 15.46L14.57 15.46L14.57 14.62L17.06 14.62L17.06 15.14Q17.06 17.23 16.18 18.43Q15.29 19.63 13.15 19.63ZM11.62 10.42L11.62 11.16L14.57 11.16L14.57 9.91Q14.57 9.05 14.47 8.46Q14.38 7.87 14.08 7.57Q13.78 7.27 13.13 7.27L13.13 7.27Q12.50 7.27 12.18 7.56Q11.86 7.85 11.74 8.53Q11.62 9.22 11.62 10.42L11.62 10.42ZM21.91 19.63L21.91 19.63Q21.10 19.63 20.47 19.16Q19.85 18.70 19.49 17.96Q19.13 17.23 19.13 16.42L19.13 16.42Q19.13 15.12 19.56 14.23Q19.99 13.34 20.75 12.73Q21.50 12.12 22.50 11.66Q23.50 11.21 24.60 10.78L24.60 10.78L24.60 9.79Q24.60 8.95 24.50 8.40Q24.41 7.85 24.11 7.57Q23.81 7.30 23.21 7.30L23.21 7.30Q22.68 7.30 22.36 7.54Q22.03 7.78 21.89 8.22Q21.74 8.66 21.74 9.26L21.74 9.26L21.74 9.96L19.20 9.86Q19.25 7.56 20.26 6.47Q21.26 5.38 23.38 5.38L23.38 5.38Q25.44 5.38 26.30 6.50Q27.17 7.63 27.17 9.77L27.17 9.77L27.17 16.10Q27.17 16.75 27.20 17.35Q27.24 17.95 27.30 18.47Q27.36 18.98 27.41 19.44L27.41 19.44L25.06 19.44Q24.98 19.06 24.88 18.47Q24.77 17.88 24.72 17.40L24.72 17.40Q24.48 18.22 23.80 18.92Q23.11 19.63 21.91 19.63ZM22.92 17.42L22.92 17.42Q23.30 17.42 23.64 17.21Q23.98 16.99 24.24 16.72Q24.50 16.44 24.60 16.27L24.60 16.27L24.60 12.34Q24 12.67 23.47 13.01Q22.94 13.34 22.55 13.72Q22.15 14.09 21.92 14.56Q21.70 15.02 21.70 15.62L21.70 15.62Q21.70 16.46 22.01 16.94Q22.32 17.42 22.92 17.42ZM32.28 19.44L29.71 19.44L29.71 5.57L32.28 5.57L32.28 7.54Q33.05 6.26 33.82 5.83Q34.58 5.40 35.35 5.40L35.35 5.40Q35.45 5.40 35.53 5.40Q35.62 5.40 35.76 5.42L35.76 5.42L35.76 8.26Q35.47 8.14 35.10 8.05Q34.73 7.97 34.34 7.97L34.34 7.97Q33.74 7.97 33.25 8.24Q32.76 8.52 32.28 9.31L32.28 9.31L32.28 19.44ZM39.91 19.44L37.34 19.44L37.34 5.57L39.91 5.57L39.91 6.94Q40.61 6.29 41.45 5.83Q42.29 5.38 43.30 5.38L43.30 5.38Q44.14 5.38 44.58 5.81Q45.02 6.24 45.20 6.89Q45.38 7.54 45.38 8.21L45.38 8.21L45.38 19.44L42.82 19.44L42.82 8.95Q42.82 8.21 42.60 7.80Q42.38 7.39 41.71 7.39L41.71 7.39Q41.28 7.39 40.81 7.64Q40.34 7.90 39.91 8.26L39.91 8.26L39.91 19.44ZM47.98 22.92L47.66 22.92L47.66 20.95Q48.60 20.95 49.15 20.87Q49.70 20.78 49.94 20.56Q50.18 20.33 50.18 19.92L50.18 19.92Q50.18 19.70 50.02 18.96Q49.85 18.22 49.66 17.38L49.66 17.38L46.87 5.57L49.46 5.57L51.34 15.94L53.14 5.57L55.73 5.57L52.42 20.21Q52.20 21.22 51.62 21.80Q51.05 22.39 50.15 22.66Q49.25 22.92 47.98 22.92L47.98 22.92Z" transform="translate(36, 8.28)"></path></svg>